<svg width="241" height="23" viewBox="0 0 241 23" fill="none" xmlns="http://www.w3.org/2000/svg">
<path d="M120.005 22.3922H111.752V0.329352H120.005V22.3922ZM112.558 21.5863H119.199V1.13527H112.558V21.5863ZM131.488 22.3922H123.401V0.329352H140.297C146.307 0.329352 149.5 3 149.473 8.39662C149.446 13.7932 146.5 16.2745 140.408 16.4365C139.558 16.4591 133.193 16.4365 131.493 16.4365L131.488 22.3922ZM124.202 21.5863H130.682V15.6225C133.917 15.6225 137.153 15.6225 140.388 15.6225C145.664 15.6225 148.656 13.5 148.656 8.39501C148.656 3.36491 145.755 1.13366 140.285 1.13366H124.207L124.202 21.5863ZM138.585 11.4801H130.627V5.47435H138.638C141 5.38367 142.155 6.75205 142.155 8.50461C142.155 10.2572 141.351 11.4736 138.585 11.4736V11.4801ZM131.433 10.6742H138.585C140.408 10.6742 141.351 10.3031 141.351 8.50461C141.351 6.5 140.13 6.28027 138.638 6.28027H131.433V10.6742ZM164.181 22.7178C158.12 22.7178 151 21.5 150.363 14.5458H158.973C159.395 17.0989 162.641 16.9297 164.695 16.9297C169.221 16.9297 169.221 16.1351 169.221 15.7079C169.221 14.9874 168.697 14.7408 165.006 14.3475C159.872 13.8641 150.564 14.134 150.564 7.09748C150.564 2.78902 155.707 0.00537109 163.668 0.00537109C169.27 0.00537109 176.187 1.61605 176.985 8.06781H168.365C168.149 5.82171 165.232 5.7935 163.478 5.7935C159.595 5.7935 159.06 6.28994 159.06 6.82508C159.06 7.53912 160.287 7.79218 164.218 8.21287C165.857 8.34665 168.493 8.61744 169.395 8.72705C175.07 9.34277 177.603 11.3946 177.603 15.3823C177.604 18.7269 175.275 22.7178 164.181 22.7178ZM151.304 15.3517C152.183 21.1192 159.499 21.9119 164.181 21.9119C169.938 21.9119 176.803 20.7836 176.803 15.3823C176.803 11.8476 174.563 10.0971 169.31 9.52813C168.407 9.41853 165.788 9.14935 164.152 9.01396C159.961 8.55942 158.257 8.31764 158.257 6.82508C158.257 5.28093 160.093 4.98758 163.481 4.98758C165.327 4.98758 168.388 5.08663 169.066 7.26188H176.052C174.835 1.84229 168.382 0.811292 163.672 0.811292C156.201 0.811292 151.373 3.27902 151.373 7.09748C151.373 13.5202 160.436 13.1107 165.09 13.5465C168.518 13.9075 170.03 14.1332 170.03 15.7079C170.03 17.4036 168.075 17.7356 164.698 17.7356C162.645 17.7356 159.071 17.8212 158.317 15.3517H151.304ZM192.915 22.6904C184.501 22.6904 179.859 19.2878 179.859 13.108V0.329352H188.002V13.108C188.002 15.2276 189.899 16.4429 193.205 16.4429C196.365 16.4429 198.326 15.1744 198.326 13.1354V0.329352H206.385V13.785C206.393 19.4442 201.479 22.6904 192.91 22.6904H192.915ZM180.665 1.13527V13.108C180.665 20.7449 188.334 21.8845 192.915 21.8845C197.651 21.8845 205.592 20.832 205.592 13.785V1.13527H199.145V13.1354C199.145 15.6338 196.817 17.2489 193.218 17.2489C189.456 17.2489 187.209 15.7015 187.209 13.108V1.13527H180.665ZM240.537 22.3922H232.852V12.4311L228.493 22.3922H221.79L217.476 12.4504V22.3922H209.764V0.329352H219.909L225.179 12.4939L230.705 0.329352H240.547L240.537 22.3922ZM233.658 21.5863H239.731V1.13527H231.217L225.154 14.4797L219.374 1.13527H210.563V21.5863H216.664V8.57231L222.306 21.5912H227.947L233.648 8.59165L233.658 21.5863ZM7.75805 0.732312H0.417725V21.9893H20.7011V16.3301H7.75805V0.732312ZM35.5172 0.248759C26.1476 0.248759 21.2202 4.68938 21.2202 11.2093C21.2202 18.5754 26.3926 22.3117 35.5172 22.3117C45.5622 22.3117 49.7868 17.979 49.7868 11.2093C49.7868 4.33478 45.0206 0.245536 35.5172 0.245536V0.248759ZM37.3982 5.88376L29.1923 14.0896C27 8 31 5 37.3982 5.88376ZM33.6781 16.7718L41.8985 8.55136C44 15 40 17.5 33.6781 16.7718ZM64.3305 13.9736H71.8852C71.344 16.5252 67.8552 17.3223 65.6296 17.1409C61 17.1409 58.7257 15.2245 58.9953 11.4543C58.9953 6.5 61.9449 5.76771 65.5764 5.76771C67.5322 5.60578 70.5486 6.197 71.263 8.34021H78.2697C78.2188 7.4609 78.0073 6.59834 77.6459 5.79511C75.968 2.38284 72.0673 0.351917 65.4346 0.351917C58.6186 0.351917 51.5969 2.99033 51.5969 11.4011C51.5969 18.5 56.5 22.3149 64.0081 22.3149C67.015 22.5246 70.0014 21.6824 72.4558 19.9326L72.646 21.9893H78.4663V9.39758H64.3305V13.9736ZM94.9861 0.243924C85.6181 0.243924 80.6891 4.68455 80.6891 11.2045C80.6891 18.5706 85.8599 22.3068 94.9861 22.3068C105.033 22.3068 109.257 17.9742 109.257 11.2045C109.257 4.33478 104.491 0.245536 94.9861 0.245536V0.243924ZM96.8188 5.87409L88.6451 14.0526C86.5 8.51106 90 4.76675 96.8188 5.87409ZM93.0986 16.7605L101.346 8.51106C103.5 13.5 100 18 93.0986 16.7605Z" fill="white"/>
</svg>
