<svg width="188" height="15" viewBox="0 0 188 15" fill="none" xmlns="http://www.w3.org/2000/svg">
<path d="M11.7861 14H9.07031V3.41797H5.92383L5.7832 4.5957C5.41992 7.58984 5.09766 9.69043 4.81641 10.8975C4.54102 12.0986 4.13965 12.9453 3.6123 13.4375C3.09082 13.9297 2.36719 14.1758 1.44141 14.1758C0.949219 14.1758 0.515625 14.1113 0.140625 13.9824V11.75C0.480469 11.8672 0.799805 11.9258 1.09863 11.9258C1.40918 11.9258 1.65527 11.7852 1.83691 11.5039C2.01855 11.2168 2.18848 10.6895 2.34668 9.92188C2.51074 9.14844 2.72461 7.88574 2.98828 6.13379C3.25781 4.37598 3.48633 2.71484 3.67383 1.15039H11.7861V14ZM22.4297 14H15.0293V1.15039H22.4297V3.38281H17.7539V6.2041H22.1045V8.43652H17.7539V11.75H22.4297V14ZM30.0762 14H27.3516V3.41797H23.8623V1.15039H33.5654V3.41797H30.0762V14ZM49.5527 14H46.8369V8.4541H41.748V14H39.0234V1.15039H41.748V6.18652H46.8369V1.15039H49.5527V14ZM60.6709 14L59.7393 10.9414H55.0547L54.123 14H51.1875L55.7227 1.09766H59.0537L63.6064 14H60.6709ZM59.0889 8.65625C58.2275 5.88477 57.7412 4.31738 57.6299 3.9541C57.5244 3.59082 57.4482 3.30371 57.4014 3.09277C57.208 3.84277 56.6543 5.69727 55.7402 8.65625H59.0889ZM74.6895 11.7324H78.6797V1.15039H81.3955V14H65.2324V1.15039H67.957V11.7324H71.9473V1.15039H74.6895V11.7324ZM92.0391 14H84.6387V1.15039H92.0391V3.38281H87.3633V6.2041H91.7139V8.43652H87.3633V11.75H92.0391V14ZM102.85 1.15039V3.40039H97.4531V14H94.7285V1.15039H102.85ZM116.323 7.55762C116.323 9.68457 115.796 11.3193 114.741 12.4619C113.687 13.6045 112.175 14.1758 110.206 14.1758C108.237 14.1758 106.726 13.6045 105.671 12.4619C104.616 11.3193 104.089 9.67871 104.089 7.54004C104.089 5.40137 104.616 3.76953 105.671 2.64453C106.731 1.51367 108.249 0.948242 110.224 0.948242C112.198 0.948242 113.707 1.5166 114.75 2.65332C115.799 3.79004 116.323 5.4248 116.323 7.55762ZM106.945 7.55762C106.945 8.99316 107.218 10.0742 107.763 10.8008C108.308 11.5273 109.122 11.8906 110.206 11.8906C112.38 11.8906 113.467 10.4463 113.467 7.55762C113.467 4.66309 112.386 3.21582 110.224 3.21582C109.14 3.21582 108.322 3.58203 107.771 4.31445C107.221 5.04102 106.945 6.12207 106.945 7.55762ZM134.13 7.55762C134.13 9.68457 133.603 11.3193 132.548 12.4619C131.493 13.6045 129.981 14.1758 128.013 14.1758C126.044 14.1758 124.532 13.6045 123.478 12.4619C122.423 11.3193 121.896 9.67871 121.896 7.54004C121.896 5.40137 122.423 3.76953 123.478 2.64453C124.538 1.51367 126.056 0.948242 128.03 0.948242C130.005 0.948242 131.514 1.5166 132.557 2.65332C133.605 3.79004 134.13 5.4248 134.13 7.55762ZM124.752 7.55762C124.752 8.99316 125.024 10.0742 125.569 10.8008C126.114 11.5273 126.929 11.8906 128.013 11.8906C130.187 11.8906 131.273 10.4463 131.273 7.55762C131.273 4.66309 130.192 3.21582 128.03 3.21582C126.946 3.21582 126.129 3.58203 125.578 4.31445C125.027 5.04102 124.752 6.12207 124.752 7.55762ZM146.962 14H144.246V3.41797H139.518V14H136.793V1.15039H146.962V14ZM158.994 9.9834C158.994 11.3193 158.549 12.3242 157.658 12.998C156.773 13.666 155.461 14 153.721 14H150.205V1.15039H152.93V6.08105H153.809C155.455 6.08105 156.729 6.42383 157.632 7.10938C158.54 7.78906 158.994 8.74707 158.994 9.9834ZM152.93 11.7676H153.642C154.538 11.7676 155.194 11.6211 155.61 11.3281C156.026 11.0293 156.234 10.5811 156.234 9.9834C156.234 9.38574 156.032 8.95801 155.628 8.7002C155.229 8.44238 154.526 8.31348 153.519 8.31348H152.93V11.7676ZM163.274 14H160.559V1.15039H163.274V14ZM171.475 14H168.75V3.41797H165.261V1.15039H174.964V3.41797H171.475V14ZM184.192 14L183.261 10.9414H178.576L177.645 14H174.709L179.244 1.09766H182.575L187.128 14H184.192ZM182.61 8.65625C181.749 5.88477 181.263 4.31738 181.151 3.9541C181.046 3.59082 180.97 3.30371 180.923 3.09277C180.729 3.84277 180.176 5.69727 179.262 8.65625H182.61Z" fill="#0A3B93"/>
</svg>
