<svg width="241" height="23" fill="none" xmlns="http://www.w3.org/2000/svg"><path d="M120.005 22.392h-8.253V.33h8.253v22.063Zm-7.447-.806h6.641V1.136h-6.641v20.45Zm18.93.806h-8.087V.33h16.896c6.01 0 9.203 2.671 9.176 8.068-.027 5.396-2.973 7.877-9.065 8.04-.85.022-7.215 0-8.915 0l-.005 5.955Zm-7.286-.806h6.48v-5.963h9.706c5.276 0 8.268-2.123 8.268-7.228 0-5.03-2.901-7.261-8.371-7.261h-16.078l-.005 20.452Zm14.383-10.106h-7.958V5.474h8.011c2.362-.09 3.517 1.278 3.517 3.03 0 1.753-.804 2.97-3.57 2.97v.006Zm-7.152-.806h7.152c1.823 0 2.766-.37 2.766-2.17 0-2.004-1.221-2.224-2.713-2.224h-7.205v4.394Zm32.748 12.044c-6.061 0-13.181-1.218-13.818-8.172h8.61c.422 2.553 3.668 2.384 5.722 2.384 4.526 0 4.526-.795 4.526-1.222 0-.72-.524-.967-4.215-1.36-5.134-.484-14.442-.214-14.442-7.25 0-4.309 5.143-7.093 13.104-7.093 5.602 0 12.519 1.611 13.317 8.063h-8.62c-.216-2.246-3.133-2.274-4.887-2.274-3.883 0-4.418.496-4.418 1.031 0 .714 1.227.967 5.158 1.388 1.639.134 4.275.404 5.177.514 5.675.616 8.208 2.668 8.208 6.655.001 3.345-2.328 7.336-13.422 7.336Zm-12.877-7.366c.879 5.767 8.195 6.56 12.877 6.56 5.757 0 12.622-1.128 12.622-6.53 0-3.534-2.24-5.285-7.493-5.854-.903-.11-3.522-.379-5.158-.514-4.191-.455-5.895-.696-5.895-2.189 0-1.544 1.836-1.837 5.224-1.837 1.846 0 4.907.099 5.585 2.274h6.986c-1.217-5.42-7.67-6.45-12.38-6.45-7.471 0-12.299 2.467-12.299 6.285 0 6.423 9.063 6.014 13.717 6.45 3.428.36 4.94.586 4.94 2.16 0 1.697-1.955 2.029-5.332 2.029-2.053 0-5.627.085-6.381-2.384h-7.013Zm41.611 7.338c-8.414 0-13.056-3.402-13.056-9.582V.329h8.143v12.779c0 2.12 1.897 3.335 5.203 3.335 3.16 0 5.121-1.269 5.121-3.308V.33h8.059v13.456c.008 5.66-4.906 8.905-13.475 8.905h.005Zm-12.25-21.555v11.973c0 7.637 7.669 8.776 12.25 8.776 4.736 0 12.677-1.052 12.677-8.099V1.135h-6.447v12c0 2.499-2.328 4.114-5.927 4.114-3.762 0-6.009-1.547-6.009-4.141V1.135h-6.544Zm59.872 21.257h-7.685v-9.96l-4.359 9.96h-6.703l-4.314-9.942v9.942h-7.712V.33h10.145l5.27 12.165L230.705.329h9.842l-.01 22.063Zm-6.879-.806h6.073V1.136h-8.514l-6.063 13.344-5.78-13.345h-8.811v20.451h6.101V8.572l5.642 13.02h5.641l5.701-13 .01 12.994ZM7.758.732H.418V21.99H20.7v-5.66H7.758V.732ZM35.518.25c-9.37 0-14.298 4.44-14.298 10.96 0 7.366 5.173 11.103 14.297 11.103 10.045 0 14.27-4.333 14.27-11.103 0-6.874-4.766-10.963-14.27-10.963V.25Zm1.88 5.635-8.206 8.206C27 8 31 5 37.398 5.884Zm-3.72 10.888 8.22-8.22C44 15 40 17.5 33.678 16.771Zm30.653-2.798h7.554c-.541 2.551-4.03 3.348-6.255 3.167-4.63 0-6.904-1.916-6.635-5.687 0-4.954 2.95-5.686 6.581-5.686 1.956-.162 4.973.429 5.687 2.572h7.007a7.22 7.22 0 0 0-.624-2.545C75.968 2.383 72.067.352 65.435.352c-6.816 0-13.838 2.638-13.838 11.05 0 7.098 4.903 10.913 12.411 10.913a13 13 0 0 0 8.448-2.382l.19 2.056h5.82V9.398H64.331v4.576ZM94.986.244c-9.368 0-14.297 4.44-14.297 10.96 0 7.367 5.17 11.103 14.297 11.103 10.047 0 14.271-4.333 14.271-11.102 0-6.87-4.766-10.96-14.27-10.96Zm1.833 5.63-8.174 8.179C86.5 8.51 90 4.767 96.82 5.874Zm-3.72 10.887 8.247-8.25C103.5 13.5 100 18 93.099 16.761Z" fill="#fff"/></svg>