<svg width="188" height="15" fill="none" xmlns="http://www.w3.org/2000/svg"><path d="M11.786 14H9.07V3.418H5.924l-.14 1.178c-.364 2.994-.686 5.094-.968 6.302-.275 1.2-.676 2.047-1.204 2.54-.521.492-1.245.738-2.17.738-.493 0-.926-.065-1.301-.194V11.75c.34.117.659.176.958.176.31 0 .556-.14.738-.422.182-.287.351-.814.51-1.582.164-.774.378-2.036.641-3.788.27-1.758.498-3.42.686-4.984h8.112V14Zm10.644 0h-7.4V1.15h7.4v2.233h-4.676v2.821h4.35v2.233h-4.35v3.313h4.676V14Zm7.646 0h-2.724V3.418h-3.49V1.15h9.703v2.268h-3.489V14Zm19.477 0h-2.716V8.454h-5.089V14h-2.725V1.15h2.725v5.037h5.089V1.15h2.716V14Zm11.118 0-.932-3.059h-4.684L54.123 14h-2.935l4.535-12.902h3.33L63.607 14h-2.935Zm-1.582-5.344-1.46-4.702a14.7 14.7 0 0 1-.228-.861c-.193.75-.747 2.604-1.66 5.563h3.348Zm15.6 3.076h3.99V1.15h2.716V14H65.233V1.15h2.725v10.582h3.99V1.15h2.742v10.582ZM92.04 14h-7.4V1.15h7.4v2.233h-4.676v2.821h4.35v2.233h-4.35v3.313h4.676V14Zm10.81-12.85V3.4h-5.397V14h-2.725V1.15h8.122Zm13.473 6.408c0 2.127-.527 3.761-1.582 4.904-1.054 1.143-2.566 1.714-4.535 1.714-1.969 0-3.48-.572-4.535-1.714-1.055-1.143-1.582-2.783-1.582-4.922s.527-3.77 1.582-4.895c1.06-1.131 2.578-1.697 4.553-1.697 1.974 0 3.483.569 4.526 1.705 1.049 1.137 1.573 2.772 1.573 4.905Zm-9.378 0c0 1.435.273 2.516.818 3.243.545.726 1.359 1.09 2.443 1.09 2.174 0 3.261-1.445 3.261-4.333 0-2.895-1.081-4.342-3.243-4.342-1.084 0-1.902.366-2.453 1.098-.55.727-.826 1.808-.826 3.244Zm27.185 0c0 2.127-.527 3.761-1.582 4.904-1.055 1.143-2.567 1.714-4.535 1.714-1.969 0-3.481-.572-4.535-1.714-1.055-1.143-1.582-2.783-1.582-4.922s.527-3.77 1.582-4.895c1.06-1.131 2.578-1.697 4.552-1.697 1.975 0 3.484.569 4.527 1.705 1.048 1.137 1.573 2.772 1.573 4.905Zm-9.378 0c0 1.435.272 2.516.817 3.243.545.726 1.36 1.09 2.444 1.09 2.174 0 3.26-1.445 3.26-4.333 0-2.895-1.081-4.342-3.243-4.342-1.084 0-1.901.366-2.452 1.098-.551.727-.826 1.808-.826 3.244ZM146.962 14h-2.716V3.418h-4.728V14h-2.725V1.15h10.169V14Zm12.032-4.017c0 1.336-.445 2.341-1.336 3.015-.885.668-2.197 1.002-3.937 1.002h-3.516V1.15h2.725v4.931h.879c1.646 0 2.92.343 3.823 1.028.908.68 1.362 1.638 1.362 2.874Zm-6.064 1.785h.712c.896 0 1.552-.147 1.968-.44.416-.299.624-.747.624-1.345 0-.597-.202-1.025-.606-1.283-.399-.258-1.102-.387-2.109-.387h-.589v3.455ZM163.274 14h-2.715V1.15h2.715V14Zm8.201 0h-2.725V3.418h-3.489V1.15h9.703v2.268h-3.489V14Zm12.717 0-.931-3.059h-4.685L177.645 14h-2.936l4.535-12.902h3.331L187.128 14h-2.936Zm-1.582-5.344c-.861-2.771-1.347-4.339-1.459-4.702a15.13 15.13 0 0 1-.228-.861c-.194.75-.747 2.604-1.661 5.563h3.348Z" fill="#0A3B93"/></svg>